#!OML:ASF F:\VICON\USERDATA\INSTALL\rory3\rory3.ASF
:FULLY-SPECIFIED
:DEGREES
2893
root 1.50049 17.7059 -4.58762 -0.0652177 0.397308 1.40508
lowerback 4.24904 0.0639083 -0.287677
upperback 1.02022 0.1179 2.89936
thorax -1.34099 0.0616525 3.13754
lowerneck -23.3851 -8.47698 -10.5422
upperneck 22.6217 -10.6308 8.80223
head 12.4424 -4.53968 3.1524
rclavicle -1.68967e-015 3.10104e-014
rhumerus 48.4455 1.84764 -53.0928
rradius 51.5559
rwrist 43.3822
rhand -62.1545 -18.3197
rfingers 7.12502
rthumb -34.2004 -45.0587
lclavicle -1.68967e-015 3.10104e-014
lhumerus 55.7839 -5.52366 51.7898
lradius 40.4395
lwrist -36.4923
lhand -49.9116 49.9378
lfingers 7.12502
lthumb -22.5042 438.646
rfemur -18.1567 3.00547 8.8872
rtibia 26.9408
rfoot -7.15849 1.67721
rtoes 5.91961
lfemur -9.42935 -8.77169 -15.5947
ltibia 24.3811
lfoot -12.7986 -11.9462
ltoes -12.4398
2894
root 1.5842 17.7092 -4.60673 0.00260592 0.0240857 1.69575
lowerback 4.13329 0.0632919 -0.642442
upperback 1.01865 0.0991605 2.81395
thorax -1.27713 0.052548 3.25027
lowerneck -23.3824 -8.61509 -10.6548
upperneck 22.6029 -10.8187 8.90965
head 12.4708 -4.61882 3.17403
rclavicle -6.4605e-015 3.26007e-014
rhumerus 48.3943 2.22786 -53.0721
rradius 51.5675
rwrist 42.0541
rhand -62.1494 -17.7677
rfingers 7.12502
rthumb -34.1956 -44.5078
lclavicle -6.4605e-015 3.26007e-014
lhumerus 55.4181 -5.55385 51.9111
lradius 40.8236
lwrist -36.1878
lhand -49.9309 49.6687
lfingers 7.12502
lthumb -22.5227 438.375
rfemur -18.1768 3.45942 8.24969
rtibia 26.5662
rfoot -7.5516 1.3233
rtoes 4.54659
lfemur -9.52246 -8.44203 -16.2143
ltibia 24.4098
lfoot -13.0613 -11.9072
ltoes -13.7773
2895
root 1.66386 17.7104 -4.6347 -0.0121598 -0.349607 1.72433
lowerback 4.22211 0.0368697 -0.769013
upperback 1.01405 0.0591203 2.81113
thorax -1.32916 0.0333533 3.32126
lowerneck -23.2784 -8.72951 -10.7694
upperneck 22.4413 -10.9596 8.98609
head 12.4164 -4.68624 3.19406
rclavicle -2.08724e-015 3.33958e-014
rhumerus 48.2574 2.61326 -53.3219
rradius 51.6521
rwrist 40.5679
rhand -61.9803 -16.6088
rfingers 7.12502
rthumb -34.035 -43.3848
lclavicle -2.08724e-015 3.33958e-014
lhumerus 54.9867 -5.54555 51.9119
lradius 41.2777
lwrist -35.7245
lhand -49.9406 49.1295
lfingers 7.12502
lthumb -22.5321 437.835
rfemur -18.1003 4.0533 7.94338
rtibia 26.1546
rfoot -8.08152 0.867752
rtoes 2.45134
lfemur -9.56227 -8.0345 -16.4935
ltibia 24.4295
lfoot -13.1651 -12.049
ltoes -13.9421
2896
root 1.74248 17.7149 -4.65782 -0.0657357 -0.838403 1.55413
lowerback 4.19451 0.037289 -0.654794
upperback 1.07729 0.0630418 2.82278
thorax -1.24893 0.0335382 3.26831
lowerneck -23.0988 -8.80685 -10.7682
upperneck 22.1803 -11.0732 9.01122
head 12.2944 -4.74183 3.18229
rclavicle -1.49089e-015 1.19271e-014
rhumerus 48.0005 2.90294 -53.902
rradius 51.8946
rwrist 39.012
rhand -61.7842 -15.2448
rfingers 7.12502
rthumb -33.8487 -42.062
lclavicle -1.49089e-015 1.19271e-014
lhumerus 54.5686 -5.48668 51.905
lradius 41.7811
lwrist -35.1986
lhand -49.6447 48.6451
lfingers 7.12502
lthumb -22.248 437.385
rfemur -17.986 4.76472 7.8823
rtibia 25.7402
rfoot -8.6036 0.383124
rtoes 0.95554
lfemur -9.55558 -7.61903 -16.5268
ltibia 24.4659
lfoot -13.091 -12.3221
ltoes -12.4528
2897
root 1.82294 17.7225 -4.67949 -0.0532426 -1.35385 1.39274
lowerback 4.12183 0.0904251 -0.492353
upperback 1.08768 0.139242 2.79559
thorax -1.20194 0.0707025 3.14424
lowerneck -22.9182 -8.88613 -10.7767
upperneck 21.9968 -11.2161 9.11241
head 12.2129 -4.80103 3.19648
rclavicle 6.85807e-015 7.95139e-016
rhumerus 47.6915 3.15341 -54.4011
rradius 52.0857
rwrist 37.0579
rhand -61.6502 -13.6522
rfingers 7.12502
rthumb -33.7214 -40.4974
lclavicle 6.85807e-015 7.95139e-016
lhumerus 54.2235 -5.54068 52.0531
lradius 42.2449
lwrist -34.5314
lhand -49.3567 47.8822
lfingers 7.12502
lthumb -21.9716 436.654
rfemur -17.9683 5.33558 7.83005
rtibia 25.3403
rfoot -9.05922 -0.10304
rtoes -0.275969
lfemur -9.60623 -7.1223 -16.5833
ltibia 24.5022
lfoot -12.8818 -12.6578
ltoes -11.0028
2898
root 1.90275 17.731 -4.70813 0.00853013 -1.81349 1.39145
lowerback 4.13431 0.161324 -0.503502
upperback 1.03022 0.233402 2.71843
thorax -1.27318 0.118857 3.06592
lowerneck -22.791 -8.98608 -10.7804
upperneck 21.8669 -11.3984 9.24398
head 12.1694 -4.87132 3.21292
rclavicle -3.57812e-015 -4.05521e-014
rhumerus 47.4608 3.30175 -55.0222
rradius 52.0756
rwrist 35.0034
rhand -61.305 -11.6027
rfingers 7.12502
rthumb -33.3933 -38.5191
lclavicle -3.57812e-015 -4.05521e-014
lhumerus 53.8835 -5.67579 52.3842
lradius 42.7607
lwrist -33.6846
lhand -49.1112 46.5909
lfingers 7.12502
lthumb -21.7358 435.391
rfemur -18.0058 5.72457 7.60471
rtibia 24.9536
rfoot -9.57716 -0.448116
rtoes -1.07054
lfemur -9.69831 -6.53619 -16.8306
ltibia 24.4879
lfoot -12.6881 -12.9113
ltoes -10.5967
2899
root 1.9832 17.7357 -4.7349 0.141422 -2.26112 1.40898
lowerback 3.99533 0.234046 -0.517484
upperback 1.00074 0.32786 2.64179
thorax -1.23075 0.165928 2.98978
lowerneck -22.8069 -9.10178 -10.7617
upperneck 21.8117 -11.583 9.30893
head 12.1763 -4.94355 3.19688
rclavicle 2.5842e-015 6.36111e-015
rhumerus 47.3431 3.36714 -55.8081
rradius 52.0078
rwrist 32.9568
rhand -60.3381 -9.48852
rfingers 7.12502
rthumb -32.4736 -36.5983
lclavicle 2.5842e-015 6.36111e-015
lhumerus 53.5127 -5.82002 52.6351
lradius 43.4007
lwrist -32.5111
lhand -48.8056 44.8496
lfingers 7.12502
lthumb -21.4423 433.683
rfemur -18.1149 5.99426 7.35762
rtibia 24.6013
rfoot -10.2065 -0.765749
rtoes -0.684289
lfemur -9.85718 -6.06953 -17.0974
ltibia 24.4202
lfoot -12.755 -12.9787
ltoes -11.4071
2900
root 2.06419 17.7416 -4.75478 0.225161 -2.76959 1.39244
lowerback 3.77944 0.28077 -0.449734
upperback 1.04427 0.388959 2.58107
thorax -1.0679 0.194572 2.88627
lowerneck -22.9352 -9.19356 -10.766
upperneck 21.8505 -11.7084 9.32654
head 12.2321 -4.99236 3.17601
rclavicle 6.26172e-015 1.11319e-014
rhumerus 47.3534 3.61888 -56.3881
rradius 51.9438
rwrist 30.4852
rhand -59.0445 -8.15228
rfingers 7.12502
rthumb -31.2417 -35.5074
lclavicle 6.26172e-015 1.11319e-014
lhumerus 53.0746 -5.85044 52.8673
lradius 44.073
lwrist -31.1242
lhand -48.3831 43.114
lfingers 7.12502
lthumb -21.0365 431.993
rfemur -18.23 6.03853 7.20858
rtibia 24.347
rfoot -11.0305 -1.19342
rtoes -0.73173
lfemur -9.9245 -5.70354 -17.3345
ltibia 24.2982
lfoot -12.6713 -13.0074
ltoes -11.237
2901
root 2.14085 17.7515 -4.77764 0.197223 -3.3068 1.27773
lowerback 3.76133 0.335506 -0.31253
upperback 1.0608 0.465956 2.54504
thorax -1.04359 0.232505 2.76816
lowerneck -22.9263 -9.25778 -10.6732
upperneck 21.8037 -11.8105 9.25779
head 12.2122 -5.03956 3.11445
rclavicle -8.79622e-015 -7.95139e-015
rhumerus 47.1197 3.8751 -57.1548
rradius 51.9875
rwrist 27.8597
rhand -57.5959 -6.77079
rfingers 7.12502
rthumb -29.8603 -34.3833
lclavicle -8.79622e-015 -7.95139e-015
lhumerus 52.5447 -5.90241 53.2157
lradius 44.8072
lwrist -29.5063
lhand -47.7305 40.8895
lfingers 7.12502
lthumb -20.4094 429.837
rfemur -18.2474 6.07163 7.22209
rtibia 24.1711
rfoot -12.0611 -1.8712
rtoes -0.508567
lfemur -9.8571 -5.38441 -17.4655
ltibia 24.1778
lfoot -12.2559 -12.8915
ltoes -9.8044
2902
root 2.21309 17.7634 -4.8074 0.201527 -3.79945 1.14595
lowerback 3.85378 0.38426 -0.26582
upperback 0.994545 0.535412 2.57562
thorax -1.1667 0.268462 2.76956
lowerneck -22.7792 -9.33083 -10.7241
upperneck 21.7022 -11.9015 9.25269
head 12.1582 -5.0914 3.10553
rclavicle 2.20154e-014 2.06736e-014
rhumerus 46.8321 4.18107 -57.8632
rradius 52.0614
rwrist 24.9593
rhand -56.3285 -5.50537
rfingers 7.12502
rthumb -28.6501 -33.3288
lclavicle 2.20154e-014 2.06736e-014
lhumerus 51.879 -5.95432 53.7612
lradius 45.628
lwrist -27.479
lhand -46.891 38.2464
lfingers 7.12502
lthumb -19.6025 427.278
rfemur -18.2664 6.14089 7.25869
rtibia 24.0334
rfoot -13.2396 -2.77019
rtoes 0.495619
lfemur -9.86594 -5.00946 -17.5694
ltibia 24.0884
lfoot -11.932 -12.6853
ltoes -9.04757
2903
root 2.28752 17.7757 -4.83756 0.285576 -4.24703 1.142
lowerback 3.86201 0.405346 -0.257991
upperback 0.915597 0.564923 2.53479
thorax -1.25335 0.284303 2.72132
lowerneck -22.7387 -9.38938 -10.7816
upperneck 21.6759 -11.9886 9.32537
head 12.1603 -5.1276 3.12558
rclavicle -7.8023e-015 6.36111e-015
rhumerus 46.6742 4.53677 -58.4471
rradius 52.1106
rwrist 21.6422
rhand -55.2936 -4.84637
rfingers 7.12502
rthumb -27.6609 -32.8326
lclavicle -7.8023e-015 6.36111e-015
lhumerus 51.1636 -5.9836 54.297
lradius 46.5553
lwrist -25.2758
lhand -45.8555 36.1891
lfingers 7.12502
lthumb -18.6067 425.319
rfemur -18.3509 6.03284 7.15537
rtibia 23.9359
rfoot -14.588 -3.78173
rtoes 1.81257
lfemur -9.99639 -4.62345 -17.8178
ltibia 24.049
lfoot -12.0149 -12.5171
ltoes -9.69405
